<svg width="38" height="38" viewBox="-2 0 38 38" fill="none" xmlns="http://www.w3.org/2000/svg">
<path fill-rule="evenodd" clip-rule="evenodd" d="M27.9755 0C32.4271 0.00010655 36.0351 3.59007 36.0351 8.01855C36.0351 12.4466 32.4266 16.0371 27.9746 16.0371H20.6093L28.1904 20.3994C32.7247 23.0074 34.2737 28.7771 31.6523 33.2871C29.0299 37.7982 23.2304 39.3393 18.6962 36.7305C14.1622 34.1221 12.6125 28.3529 15.2343 23.8428L19.4326 16.6201L12.913 20.4961C8.86585 22.9002 3.62607 21.5873 1.20894 17.5615C-1.20787 13.5359 0.112203 8.32448 4.15816 5.91895C8.20488 3.51388 13.4447 4.82727 15.8623 8.85254L19.915 15.6016V8.01855C19.915 3.59 23.5239 0 27.9755 0ZM27.0039 22.4395C23.6091 20.4859 19.2499 21.6454 17.2871 25.0234C15.3242 28.3997 16.489 32.7358 19.8837 34.6895C23.278 36.6416 27.6372 35.4835 29.6005 32.1064C31.5635 28.7302 30.3987 24.3927 27.0039 22.4395ZM13.8271 10.0615C12.0837 7.15949 8.29172 6.20906 5.37398 7.94336C2.45657 9.67781 1.50236 13.4495 3.24508 16.3516C4.98844 19.2537 8.77943 20.205 11.6972 18.4707C14.6146 16.7364 15.57 12.9637 13.8271 10.0615ZM27.9755 2.3584C24.8382 2.3584 22.2861 4.89748 22.2861 8.01855C22.2861 11.1391 24.8382 13.6787 27.9755 13.6787C31.1128 13.6786 33.665 11.1395 33.665 8.01855C33.665 4.89755 31.1128 2.35851 27.9755 2.3584Z" fill="#000000"/>
</svg>
