<svg preserveAspectRatio="none" width="100%" height="100%" overflow="visible" style="display: block;" viewBox="0 0 48.25 44.1877" fill="none" xmlns="http://www.w3.org/2000/svg">
<g id="Group 90">
<path id="Vector 451" d="M5.25 0.750173L8.28403 7.05162C8.78399 8.08999 9.83457 8.75017 10.987 8.75017H44.1566C46.1843 8.75017 47.6279 10.72 47.0173 12.6536L42.856 25.8311C42.4894 26.992 41.4576 27.8162 40.2444 27.9173L20.3068 29.5788C19.068 29.682 17.8939 29.0106 17.3546 27.8906L14.3981 21.7502" stroke="var(--stroke-0, #335562)" stroke-width="1.5" stroke-linecap="round"/>
<circle id="Ellipse 93" cx="42.75" cy="39.6877" r="3.75" stroke="var(--stroke-0, #335562)" stroke-width="1.5"/>
<circle id="Ellipse 94" cx="12.75" cy="39.6877" r="3.75" stroke="var(--stroke-0, #335562)" stroke-width="1.5"/>
<path id="Vector 452" d="M38.75 39.7502H16.75" stroke="var(--stroke-0, #335562)" stroke-width="1.5" stroke-linecap="round"/>
<path id="Vector 455" d="M15.694 29.1877L13.4551 35.6877" stroke="var(--stroke-0, #335562)" stroke-width="1.5" stroke-linecap="round"/>
<path id="Vector 453" d="M16.75 18.7502L9.71875 18.7502" stroke="var(--stroke-0, #335562)" stroke-width="1.5" stroke-linecap="round"/>
<path id="Vector 454" d="M16.75 14.7502L6.75 14.7502" stroke="var(--stroke-0, #335562)" stroke-width="1.5" stroke-linecap="round"/>
<path id="Vector 456" d="M5.25 0.750172L0.75 0.750173" stroke="var(--stroke-0, #335562)" stroke-width="1.5" stroke-linecap="round"/>
</g>
</svg>
