<svg preserveAspectRatio="none" width="100%" height="100%" overflow="visible" style="display: block;" viewBox="0 0 52.75 48.4688" fill="none" xmlns="http://www.w3.org/2000/svg">
<g id="Group 93">
<g id="Group 81">
<path id="Rectangle 633" d="M42.3027 7.768C42.3027 7.49186 42.5266 7.268 42.8027 7.268L45.8027 7.268C46.0789 7.268 46.3027 7.49186 46.3027 7.768V31.9022C46.3027 31.9641 46.2912 32.0254 46.2688 32.0831L44.7688 35.9469C44.6037 36.3722 44.0018 36.3722 43.8366 35.9469L42.3366 32.0831C42.3142 32.0254 42.3027 31.9641 42.3027 31.9022V7.768Z" stroke="var(--stroke-0, #335562)" stroke-width="1.5"/>
<path id="Rectangle 634" d="M42.3029 5.14746C42.3029 4.04289 43.1984 3.14746 44.3029 3.14746C45.4075 3.14746 46.3029 4.04289 46.3029 5.14746V7.26876L42.3029 7.26876V5.14746Z" stroke="var(--stroke-0, #335562)" stroke-width="1.5"/>
</g>
<path id="Rectangle 639" d="M0 7.22461H28.2578M6 12.2246V38.2246C6 40.4337 7.79086 42.2246 10 42.2246H48C50.2091 42.2246 52 40.4337 52 38.2246V11.0293C52 8.92803 50.2966 7.22461 48.1953 7.22461" stroke="var(--stroke-0, #335562)" stroke-width="1.5"/>
<path id="Vector 440" d="M46.1953 47.7188H11.1953" stroke="var(--stroke-0, #335562)" stroke-width="1.5" stroke-linecap="round"/>
<path id="Vector" d="M33.2163 29.9147L33.217 29.914C33.4819 29.6483 33.8071 29.4483 34.1678 29.3319C34.6015 29.1931 35.0719 29.178 35.5254 29.2905C35.9225 29.3889 36.2922 29.5825 36.6033 29.8532L36.7339 29.9741L36.7345 29.9748C37.3379 30.5802 37.7131 31.3719 37.7966 32.208C37.8799 33.0434 37.667 33.87 37.2007 34.544C36.7344 35.2177 36.041 35.7005 35.2402 35.9078C34.5389 36.0894 33.792 36.0503 33.101 35.7946L32.8096 35.6717C32.7948 35.6645 32.7818 35.6524 32.773 35.6378C32.7641 35.6231 32.7608 35.6084 32.7612 35.5971C32.7617 35.5863 32.7654 35.5788 32.7688 35.5743C32.7722 35.5699 32.7774 35.5664 32.7847 35.564L32.7854 35.5633C32.9947 35.4939 33.1828 35.3715 33.3309 35.2069C33.4791 35.0422 33.5808 34.842 33.6278 34.6269C33.6748 34.4119 33.6655 34.1893 33.603 33.9806C33.5406 33.7725 33.4273 33.5836 33.2743 33.4309C32.7961 32.9526 32.5252 32.3113 32.5168 31.6514C32.5084 30.9923 32.7621 30.3689 33.2163 29.9147Z" stroke="var(--stroke-0, #335562)" stroke-width="1.5"/>
<path id="Rectangle 649" d="M34.9512 0.75C35.4994 0.75 35.9544 1.11073 36.0713 1.61523C36.6481 4.11107 37.7178 9.46967 37.6953 14.7471C37.6753 19.4298 37.269 24.1675 36.9814 26.9473C36.875 27.9741 36.0038 28.75 34.9502 28.75C33.894 28.7499 33.0204 27.9691 32.915 26.9375C32.6271 24.114 32.2154 19.3088 32.1953 14.7471C32.1727 9.61961 33.2487 4.16874 33.8252 1.62598C33.9409 1.11568 34.3996 0.75013 34.9512 0.75Z" stroke="var(--stroke-0, #335562)" stroke-width="1.5"/>
<g id="Rectangle 650">
<mask id="path-7-inside-1_0_58" fill="white">
<rect x="11.1953" y="15.9375" width="5" height="5" rx="1"/>
</mask>
<rect x="11.1953" y="15.9375" width="5" height="5" rx="1" stroke="var(--stroke-0, #335562)" stroke-width="3" mask="url(#path-7-inside-1_0_58)"/>
</g>
<g id="Rectangle 653">
<mask id="path-8-inside-2_0_58" fill="white">
<rect x="19.1953" y="15.9375" width="5" height="5" rx="1"/>
</mask>
<rect x="19.1953" y="15.9375" width="5" height="5" rx="1" stroke="var(--stroke-0, #335562)" stroke-width="3" mask="url(#path-8-inside-2_0_58)"/>
</g>
<g id="Rectangle 651">
<mask id="path-9-inside-3_0_58" fill="white">
<rect x="11.1953" y="23.9375" width="5" height="5" rx="1"/>
</mask>
<rect x="11.1953" y="23.9375" width="5" height="5" rx="1" stroke="var(--stroke-0, #335562)" stroke-width="3" mask="url(#path-9-inside-3_0_58)"/>
</g>
<g id="Rectangle 654">
<mask id="path-10-inside-4_0_58" fill="white">
<rect x="19.1953" y="23.9375" width="5" height="5" rx="1"/>
</mask>
<rect x="19.1953" y="23.9375" width="5" height="5" rx="1" stroke="var(--stroke-0, #335562)" stroke-width="3" mask="url(#path-10-inside-4_0_58)"/>
</g>
<g id="Rectangle 652">
<mask id="path-11-inside-5_0_58" fill="white">
<rect x="11.1953" y="31.9375" width="5" height="5" rx="1"/>
</mask>
<rect x="11.1953" y="31.9375" width="5" height="5" rx="1" stroke="var(--stroke-0, #335562)" stroke-width="3" mask="url(#path-11-inside-5_0_58)"/>
</g>
<g id="Rectangle 655">
<mask id="path-12-inside-6_0_58" fill="white">
<rect x="19.1953" y="31.9375" width="5" height="5" rx="1"/>
</mask>
<rect x="19.1953" y="31.9375" width="5" height="5" rx="1" stroke="var(--stroke-0, #335562)" stroke-width="3" mask="url(#path-12-inside-6_0_58)"/>
</g>
</g>
</svg>
