<svg preserveAspectRatio="none" width="100%" height="100%" overflow="visible" style="display: block;" viewBox="0 0 52.75 39.5" fill="none" xmlns="http://www.w3.org/2000/svg">
<g id="Group 87">
<path id="Rectangle 639" d="M0 0.75H48C50.2091 0.75 52 2.54086 52 4.75V34.75C52 36.9591 50.2091 38.75 48 38.75H10C7.79086 38.75 6 36.9591 6 34.75V5.75" stroke="var(--stroke-0, #335562)" stroke-width="1.5"/>
<circle id="Ellipse 92" cx="22.5938" cy="10.25" r="2.25" stroke="var(--stroke-0, #335562)" stroke-width="1.5"/>
<path id="Union" d="M44.6387 24.0202C45.2686 24.6502 44.8225 25.7273 43.9316 25.7273H13.8034C12.9359 25.7273 12.4798 24.6983 13.0625 24.0556L19.1519 17.3394C19.5509 16.8994 20.2433 16.9021 20.6388 17.3453L23.9016 21.001C24.2993 21.4468 24.9966 21.4465 25.3941 21.0006L32.3356 13.2125C32.7181 12.7834 33.3828 12.7643 33.7892 13.1708L44.6387 24.0202Z" stroke="var(--stroke-0, #335562)" stroke-width="1.5" stroke-linecap="round"/>
<rect id="Rectangle 640" x="22.8594" y="31.6094" width="2.25" height="0.75" rx="0.375" stroke="var(--stroke-0, #335562)" stroke-width="0.75"/>
<rect id="Rectangle 641" x="27.9219" y="31.6094" width="2.25" height="0.75" rx="0.375" stroke="var(--stroke-0, #335562)" stroke-width="0.75"/>
<rect id="Rectangle 642" x="32.875" y="31.6094" width="2.25" height="0.75" rx="0.375" stroke="var(--stroke-0, #335562)" stroke-width="0.75"/>
</g>
</svg>
