<svg preserveAspectRatio="none" width="100%" height="100%" overflow="visible" style="display: block;" viewBox="0 0 50.5 42.5938" fill="none" xmlns="http://www.w3.org/2000/svg">
<g id="Group 83">
<path id="Vector 422" d="M0.75 18.75H6.75C6.75 13.75 11.75 13.75 11.75 13.75H17.75H27.2188C38.2188 13.75 44.0833 5.41667 45.75 0.75C49.75 0.75 49.75 4.75 49.75 4.75V36.6875C49.75 36.6875 49.75 40.75 45.75 40.75C44.4167 36.0833 38.2188 27.75 27.2188 27.75H21.75" stroke="var(--stroke-0, #335562)" stroke-width="1.5" stroke-linecap="round"/>
<path id="Vector 432" d="M3.75 22.7812H6.75C6.75 27.7812 11.75 27.7812 11.75 27.7812H14.7188" stroke="var(--stroke-0, #335562)" stroke-width="1.5" stroke-linecap="round"/>
<path id="Vector 428" d="M18.75 18.75H12.75" stroke="var(--stroke-0, #335562)" stroke-width="1.5" stroke-linecap="round"/>
<path id="Vector 433" d="M18.75 22.8125H12.75" stroke="var(--stroke-0, #335562)" stroke-width="1.5" stroke-linecap="round"/>
<path id="Vector 434" d="M20.375 32.625L21.6562 27.75" stroke="var(--stroke-0, #335562)" stroke-width="1.5" stroke-linecap="round"/>
<path id="Vector 431" d="M25.7188 32L23.7188 38.8438C23.7188 38.8438 22.8438 41.8438 20.7188 41.8438H18.7188C18.7188 41.8438 14.7188 41.9062 14.7188 37.9062V27.75" stroke="var(--stroke-0, #335562)" stroke-width="1.5" stroke-linecap="round"/>
</g>
</svg>
