<svg preserveAspectRatio="none" width="100%" height="100%" overflow="visible" style="display: block;" viewBox="0 0 46.4134 42.5" fill="none" xmlns="http://www.w3.org/2000/svg">
<g id="Group 82">
<path id="Vector 418" d="M19.25 0.75L7.25 12.75" stroke="var(--stroke-0, #335562)" stroke-width="1.5"/>
<path id="Vector 416" d="M19.25 0.75H34.25C35.5833 0.75 38.25 1.55 38.25 4.75C38.25 5.15905 38.25 6.84479 38.25 7.75M6.25 18.75C6.25 25.9167 6.25 34.15 6.25 37.75C6.25 41.75 10.25 41.75 10.25 41.75C16.9167 41.75 31.05 41.75 34.25 41.75C37.45 41.75 38.25 39.0833 38.25 37.75C38.25 30.1147 38.25 31.8581 38.25 24.75" stroke="var(--stroke-0, #335562)" stroke-width="1.5" stroke-linecap="round"/>
<path id="Vector 417" d="M19.25 0.75V8.75C19.25 11.95 16.5833 12.75 15.25 12.75H0.75" stroke="var(--stroke-0, #335562)" stroke-width="1.5" stroke-linecap="round" stroke-linejoin="round"/>
<g id="Group 81">
<path id="Rectangle 633" d="M40.403 10.932C40.5982 10.7367 40.9148 10.7367 41.1101 10.932L43.2314 13.0533C43.4267 13.2486 43.4267 13.5651 43.2314 13.7604L26.6825 30.3093C26.6375 30.3543 26.5844 30.3903 26.5259 30.4153L22.8136 32.0063C22.3987 32.1841 21.9793 31.7647 22.1571 31.3498L23.748 27.6375C23.7731 27.579 23.8091 27.5259 23.8541 27.4809L40.403 10.932Z" stroke="var(--stroke-0, #335562)" stroke-width="1.5"/>
<path id="Rectangle 634" d="M42.1707 9.16421C42.9518 8.38316 44.2181 8.38316 44.9992 9.16421C45.7802 9.94526 45.7802 11.2116 44.9992 11.9926L43.585 13.4069L40.7565 10.5784L42.1707 9.16421Z" stroke="var(--stroke-0, #335562)" stroke-width="1.5"/>
</g>
<path id="Vector 419" d="M22.25 20.75H12.25" stroke="var(--stroke-0, #335562)" stroke-width="1.5" stroke-linecap="round"/>
<path id="Vector 420" d="M18.25 24.75H12.25" stroke="var(--stroke-0, #335562)" stroke-width="1.5" stroke-linecap="round"/>
<path id="Vector 421" d="M15.25 28.75H12.25" stroke="var(--stroke-0, #335562)" stroke-width="1.5" stroke-linecap="round"/>
</g>
</svg>
