<svg preserveAspectRatio="none" width="100%" height="100%" overflow="visible" style="display: block;" viewBox="0 0 45.5 45.5" fill="none" xmlns="http://www.w3.org/2000/svg">
<g id="Group 86">
<path id="Union" d="M18.5595 2.34766C18.5595 1.46529 19.2748 0.75 20.1572 0.75H24.9405C26.045 0.75 26.9405 1.65272 26.9405 2.75729C26.9405 3.69134 27.591 4.49592 28.481 4.7795C29.4953 5.10269 30.4723 5.50939 31.4041 5.9915C32.2337 6.42077 33.2633 6.31115 33.9238 5.65065C34.7048 4.8696 35.9771 4.86363 36.7581 5.64468L39.8559 8.74248C40.637 9.52353 40.6309 10.7959 39.8499 11.577C39.1894 12.2375 39.0797 13.2671 39.5089 14.0967C39.9908 15.0282 40.3974 16.005 40.7205 17.019C41.0041 17.909 41.8087 18.5595 42.7427 18.5595C43.8473 18.5595 44.75 19.455 44.75 20.5595V24.9405C44.75 26.045 43.8473 26.9405 42.7427 26.9405C41.8087 26.9405 41.0041 27.591 40.7205 28.481C40.3974 29.4951 39.9908 30.4719 39.5088 31.4035C39.0796 32.233 39.1891 33.2624 39.8495 33.9229C40.6306 34.704 40.6364 35.9761 39.8553 36.7571L36.7575 39.8549C35.9765 40.636 34.7044 40.6303 33.9234 39.8492C33.2629 39.1887 32.2335 39.0793 31.4039 39.5086C30.4722 39.9907 29.4952 40.3973 28.481 40.7205C27.591 41.0041 26.9405 41.8087 26.9405 42.7427C26.9405 43.8473 26.045 44.75 24.9405 44.75H20.5595C19.455 44.75 18.5595 43.8473 18.5595 42.7427C18.5595 41.8087 17.909 41.0041 17.019 40.7205C16.005 40.3974 15.0282 39.9908 14.0967 39.5089C13.2671 39.0797 12.2378 39.1891 11.5773 39.8495C10.7963 40.6306 9.5243 40.6362 8.74325 39.8552L5.64545 36.7574C4.8644 35.9763 4.86995 34.7045 5.65099 33.9234C6.31149 33.2629 6.42077 32.2337 5.9915 31.4041C5.50939 30.4723 5.10269 29.4953 4.77949 28.481C4.49592 27.591 3.69134 26.9405 2.75729 26.9405C1.65272 26.9405 0.75 26.045 0.75 24.9405V20.5595C0.75 19.455 1.65272 18.5595 2.75729 18.5595C3.69134 18.5595 4.49592 17.909 4.7795 17.019C5.10267 16.0048 5.50934 15.0278 5.99142 14.0961C6.42069 13.2665 6.31116 12.237 5.65067 11.5765C4.86962 10.7955 4.86377 9.52328 5.64482 8.74223L8.74262 5.64443C9.52367 4.86338 10.7959 4.8693 11.577 5.65035C12.2374 6.31082 13.267 6.42042 14.0965 5.99119C15.0281 5.50921 16.0049 5.10262 17.019 4.77949C17.909 4.49592 18.5595 3.69717 18.5595 2.76311V2.34766Z" stroke="var(--stroke-0, #335562)" stroke-width="1.5"/>
<path id="Ellipse 91" d="M30.9686 26.4235C31.4708 25.3018 31.75 24.0585 31.75 22.75C31.75 20.5638 30.9705 18.5597 29.6743 17.0004C28.0235 15.0144 25.5344 13.75 22.75 13.75C17.7794 13.75 13.75 17.7794 13.75 22.75C13.75 27.7206 17.7794 31.75 22.75 31.75C23.9889 31.75 25.1693 31.4997 26.2434 31.0469" stroke="var(--stroke-0, #335562)" stroke-width="1.5" stroke-linecap="round"/>
</g>
</svg>
