<svg preserveAspectRatio="none" width="100%" height="100%" overflow="visible" style="display: block;" viewBox="0 0 37.5 40.5" fill="none" xmlns="http://www.w3.org/2000/svg">
<g id="Group 85">
<path id="Ellipse 76" d="M0.25 0.75H9.75C11.9591 0.75 13.75 2.54086 13.75 4.75C13.75 6.95914 11.9591 8.75 9.75 8.75C7.54086 8.75 5.75 6.95914 5.75 4.75V4.34375" stroke="var(--stroke-0, #335562)" stroke-width="1.5"/>
<path id="Ellipse 83" d="M23.75 4.25V4.75C23.75 6.95914 25.5409 8.75 27.75 8.75C29.9591 8.75 31.75 6.95914 31.75 4.75C31.75 2.54086 29.9591 0.75 27.75 0.75H26.25" stroke="var(--stroke-0, #335562)" stroke-width="1.5"/>
<path id="Ellipse 84" d="M36.75 22.75C36.75 23.8546 35.8546 24.75 34.75 24.75C33.6454 24.75 32.75 23.8546 32.75 22.75V16.75" stroke="var(--stroke-0, #335562)" stroke-width="1.5"/>
<path id="Ellipse 85" d="M27.75 25.75V29.75V37.25C27.75 38.6307 28.8693 39.75 30.25 39.75C31.6307 39.75 32.75 38.6307 32.75 37.25V16.2812" stroke="var(--stroke-0, #335562)" stroke-width="1.5"/>
<path id="Ellipse 86" d="M27.75 37.25C27.75 38.6307 26.6307 39.75 25.25 39.75C23.8693 39.75 22.75 38.6307 22.75 37.25V16.2812" stroke="var(--stroke-0, #335562)" stroke-width="1.5"/>
<path id="Ellipse 87" d="M36.75 22.75V11.75C36.75 9.54086 34.9591 7.75 32.75 7.75H30.25" stroke="var(--stroke-0, #335562)" stroke-width="1.5"/>
<g id="Group 84">
<path id="Ellipse 77" d="M18.75 22.75C18.75 23.8546 17.8546 24.75 16.75 24.75C15.6454 24.75 14.75 23.8546 14.75 22.75V16.75" stroke="var(--stroke-0, #335562)" stroke-width="1.5"/>
<path id="Ellipse 80" d="M9.75 25.75V29.75V37.25C9.75 38.6307 10.8693 39.75 12.25 39.75C13.6307 39.75 14.75 38.6307 14.75 37.25V16.2812" stroke="var(--stroke-0, #335562)" stroke-width="1.5"/>
<path id="Ellipse 82" d="M9.75 37.25C9.75 38.6307 8.63071 39.75 7.25 39.75C5.86929 39.75 4.75 38.6307 4.75 37.25V16.2812" stroke="var(--stroke-0, #335562)" stroke-width="1.5"/>
<path id="Ellipse 78" d="M18.75 22.75V11.75C18.75 9.54086 16.9591 7.75 14.75 7.75H12.25" stroke="var(--stroke-0, #335562)" stroke-width="1.5"/>
<path id="Ellipse 79" d="M7.28125 7.75H4.75C2.54086 7.75 0.75 9.54086 0.75 11.75V22.25" stroke="var(--stroke-0, #335562)" stroke-width="1.5"/>
</g>
<path id="Ellipse 88" d="M25.2812 7.75H22.75C20.5409 7.75 18.75 9.54086 18.75 11.75V22.25" stroke="var(--stroke-0, #335562)" stroke-width="1.5"/>
<path id="Vector 435" d="M23.7188 0.78125L23.75 0.75" stroke="var(--stroke-0, #335562)" stroke-width="1.5" stroke-linecap="round"/>
<path id="Vector 436" d="M21.75 0.78125L21.7813 0.75" stroke="var(--stroke-0, #335562)" stroke-width="1.5" stroke-linecap="round"/>
<path id="Vector 437" d="M19.7266 0.78125H19.7344" stroke="var(--stroke-0, #335562)" stroke-width="1.5" stroke-linecap="round"/>
<path id="Vector 438" d="M17.7188 0.78125H17.7266" stroke="var(--stroke-0, #335562)" stroke-width="1.5" stroke-linecap="round"/>
<path id="Vector 439" d="M15.7188 0.78125H15.7266" stroke="var(--stroke-0, #335562)" stroke-width="1.5" stroke-linecap="round"/>
</g>
</svg>
