<svg width="167" height="38" viewBox="0 0 167 38" fill="none" xmlns="http://www.w3.org/2000/svg">
<path d="M27.9755 0C32.4271 0.00010655 36.0351 3.59007 36.0351 8.01855C36.0351 12.4466 32.4266 16.0371 27.9746 16.0371H20.6093L28.1904 20.3994C32.7247 23.0074 34.2737 28.7771 31.6523 33.2871C29.0299 37.7982 23.2304 39.3393 18.6962 36.7305C14.1622 34.1221 12.6125 28.3529 15.2343 23.8428L19.4326 16.6201L12.913 20.4961C8.86585 22.9002 3.62607 21.5873 1.20894 17.5615C-1.20787 13.5359 0.112203 8.32448 4.15816 5.91895C8.20488 3.51388 13.4447 4.82727 15.8623 8.85254L19.915 15.6016V8.01855C19.915 3.59 23.5239 0 27.9755 0ZM27.0039 22.4395C23.6091 20.4859 19.2499 21.6454 17.2871 25.0234C15.3242 28.3997 16.489 32.7358 19.8837 34.6895C23.278 36.6416 27.6372 35.4835 29.6005 32.1064C31.5635 28.7302 30.3987 24.3927 27.0039 22.4395ZM55.5781 7.0752C60.6333 7.0752 64.7863 11.0671 65.0371 16.0371H65.0615V24.291C65.0615 28.8309 61.2202 32.5459 56.5263 32.5459H48.9404C44.2466 32.5458 40.4062 28.8308 40.4062 24.291C40.4063 19.8626 44.0636 16.2296 48.5996 16.0537V16.0371H61.7177C61.4745 12.8759 58.8169 10.377 55.5781 10.377H47.0439C44.9488 10.3769 43.251 8.89909 43.2509 7.0752H55.5781ZM110.103 7.0752C111.936 7.0752 113.423 8.7643 113.423 10.8486V32.5459H110.103V7.0752ZM129.069 7.0752C134.285 7.0752 138.553 11.3204 138.553 16.5088V32.5459C136.72 32.5459 135.233 30.8562 135.233 28.7725V16.5088C135.233 13.1274 132.468 10.377 129.069 10.377H126.225C122.826 10.3771 120.061 13.1274 120.061 16.5088V32.5459H116.742V16.5088C116.742 11.3204 121.009 7.07532 126.225 7.0752H129.069ZM87.8193 7.0752C87.8191 8.89905 86.1214 10.377 84.0263 10.377H77.3886C74.1504 10.3771 71.4922 12.8755 71.249 16.0371H84.5009C84.5007 17.8609 82.8029 19.3388 80.708 19.3389H71.2255V32.5449H67.9062V16.5088C67.9062 11.3204 72.1733 7.07532 77.3886 7.0752H87.8193ZM107.259 7.0752C107.259 8.89905 105.561 10.377 103.466 10.377H96.8281C93.5899 10.3771 90.9317 12.8755 90.6894 16.0371H103.94C103.94 17.8609 102.242 19.3388 100.147 19.3389H90.665V32.5449H87.3457V16.5088C87.3457 11.3204 91.6127 7.07532 96.8281 7.0752H107.259ZM154.672 7.0752C161.452 7.0752 167 12.5939 167 19.3389V20.2822C167 27.0265 161.452 32.5449 154.672 32.5449H153.724C146.944 32.5448 141.397 27.0264 141.396 20.2822V19.3389C141.396 12.594 146.944 7.07536 153.724 7.0752H154.672ZM48.9404 19.3389C46.0649 19.339 43.7255 21.5615 43.7255 24.292C43.7257 27.0223 46.065 29.244 48.9404 29.2441H56.5263C59.4019 29.2441 61.742 27.0224 61.7421 24.292C61.7421 24.2118 61.7337 24.134 61.7295 24.0557H61.7421V19.3389H48.9404ZM153.724 10.377C148.756 10.3771 144.716 14.3972 144.716 19.3389V20.2822C144.716 25.2237 148.756 29.244 153.724 29.2441H154.672C159.64 29.2441 163.68 25.2238 163.681 20.2822V19.3389C163.681 14.3971 159.64 10.377 154.672 10.377H153.724ZM13.8271 10.0615C12.0837 7.15949 8.29172 6.20906 5.37398 7.94336C2.45657 9.67781 1.50236 13.4495 3.24508 16.3516C4.98844 19.2537 8.77943 20.205 11.6972 18.4707C14.6146 16.7364 15.57 12.9637 13.8271 10.0615ZM27.9755 2.3584C24.8382 2.3584 22.2861 4.89748 22.2861 8.01855C22.2861 11.1391 24.8382 13.6787 27.9755 13.6787C31.1128 13.6786 33.665 11.1395 33.665 8.01855C33.665 4.89755 31.1128 2.35851 27.9755 2.3584Z" fill="#0071D8"/>
</svg>
